PathFileType	4	(X/Y/Z)	C:/Users/beibeiliu/ov580/test_trc/User3\out6_training_dense_right.trc
DataRate	CameraRate	NumFrames	NumMarkers	Units	OrigDataRate	OrigDataStartFrame	OrigNumFrames
120	120	12	19	mm	120	376	500
Frame#	Time	ThumbCMC			ThumbMCP			ThumbIP			ThumbTip			IndexMCP			IndexPIP			IndexTip			MiddleMCP			MiddlePIP			MiddleTip			RingMCP			RingPIP			RingTip			PinkyMCP			PinkyPIP			PinkyTip			BackHand1			BackHand2			BackHand3	
		X0	Y0	Z0	X1	Y1	Z1	X2	Y2	Z2	X3	Y3	Z3	X4	Y4	Z4	X5	Y5	Z5	X6	Y6	Z6	X7	Y7	Z7	X8	Y8	Z8	X9	Y9	Z9	X10	Y10	Z10	X11	Y11	Z11	X12	Y12	Z12	X13	Y13	Z13	X14	Y14	Z14	X15	Y15	Z15	X16	Y16	Z16	X17	Y17	Z17	X18	Y18	Z18	
375	3.125	147.982	77.3993	22.5482	143.368	89.3009	-6.34509	137.228	94.7177	-38.0612	130.484	95.1752	-58.891	147.338	59.9755	-53.6416	144.878	65.4722	-79.1045	141.428	60.8058	-106.526	147.517	37.3022	-60.8614	141.89	39.8792	-83.2491	134.289	36.0584	-115.444	142.938	19.313	-49.2727	136.869	12.9581	-72.66	130.393	10.4698	-99.794	137.668	1.51873	-28.5188	132.004	-9.39021	-47.095	130.253	-19.2858	-66.5509	164.245	23.758	-0.701265	171.424	24.4971	27.1119	168.073	57.3875	8.52521	
376	3.13333	164.786	74.7224	18.8084	162.46	88.6767	-4.43686	156.233	90.3465	-37.8826	150.208	96.0301	-59.054	155.622	58.4903	-57.8053	152.166	61.6141	-82.7882	148.327	62.1747	-102.806	145.965	34.4492	-58.8343	139.259	39.5716	-84.1018	132.219	42.1225	-115.287	137.142	20.5795	-49.8393	128.657	16.3508	-68.1322	120.787	16.2558	-91.3413	127.133	4.2793	-29.318	116.565	-6.56394	-43.9598	109.755	-14.5382	-63.8695	159.171	15.8986	3.15638	169.678	16.2282	30.8065	176.365	43.5397	6.13622	
377	3.14167	175.847	71.1801	23.5763	177.143	81.8278	-6.68882	170.275	86.0751	-33.7076	165.445	93.1466	-56.3975	162.369	57.6204	-54.9393	157.598	59.5674	-80.52	151.999	59.3236	-100.656	148.633	38.9902	-59.3726	139.125	42.0237	-84.1623	133.309	47.7677	-110.755	133.589	21.4128	-42.813	124.576	23.1181	-70.1384	116.171	24.6658	-90.4241	121.646	10.2686	-23.3755	109.759	4.61903	-43.7703	104.128	0.505032	-59.7428	156.143	14.751	1.90725	164.809	9.85791	28.3612	182.385	39.1957	11.0029	
378	3.15	181.069	66.5984	26.1097	186.824	81.5939	-2.37455	178.555	83.1633	-34.225	172.892	88.302	-50.873	169.105	56.4027	-50.2361	162.821	60.0143	-77.7899	159.178	64.5765	-104.13	153.596	41.7814	-57.0194	144.226	44.3299	-79.4717	138.59	51.0251	-108.122	137.753	28.3002	-43.1773	126.031	27.5085	-68.7672	119.978	32.6251	-92.2445	121.66	14.4961	-25.346	112.358	13.1241	-43.622	100.253	7.36401	-62.8681	157.233	15.5845	1.98659	168.891	10.8125	32.6554	182.407	35.4078	9.83515	
379	3.15833	188.511	65.327	22.9162	188.119	71.9586	-3.04949	185.207	79.4501	-29.1414	180.101	84.2579	-49.884	170.473	52.227	-49.8241	168.044	59.0431	-74.5687	162.525	61.0726	-101.261	153.281	37.8532	-57.9563	148.095	45.4905	-79.176	141.896	49.7407	-108.692	139.378	30.2724	-45.783	132.082	31.9866	-64.8459	121.476	32.9923	-89.3607	120.9	15.1376	-23.4225	113.171	15.5801	-45.6559	105.663	12.1319	-65.6919	156.255	10.8503	4.32788	163.062	6.04855	28.3496	183.241	32.4965	15.1211	
380	3.16667	190.172	62.6013	29.6882	190.912	68.3835	-1.89926	191.622	76.5535	-29.005	185.634	81.0849	-50.9461	171.321	48.3533	-52.8913	170.875	54.8346	-73.9359	162.91	55.8572	-100.916	155.293	37.0093	-55.2028	149.643	43.3716	-79.9687	146.536	50.5474	-111.911	138.575	26.0471	-46.3746	131.309	29.4208	-65.1532	127.593	35.414	-89.286	125.455	17.0632	-22.4452	113.715	15.2544	-46.5195	106.476	13.5678	-62.4263	158.677	13.5238	4.36051	162.834	6.10223	29.7896	186.907	30.1362	11.3637	
381	3.175	189.194	58.5786	29.6242	192.822	65.8361	-2.07109	192.802	75.2102	-28.6937	186.745	78.6599	-52.9265	174.19	48.2732	-48.2081	169.781	50.6721	-76.7614	167.751	55.2545	-101.134	158.05	34.3433	-54.6594	151.451	41.0419	-80.6959	147.19	46.9623	-107.135	140.699	25.9049	-46.3436	131.601	26.0203	-66.011	127.967	33.2081	-92.2966	125.405	14.5434	-26.1003	118.112	14.7126	-44.1062	108.61	11.3989	-63.7147	158.281	6.64091	2.76251	163.881	1.48	30.8061	187.671	27.2626	13.6566	
382	3.18333	190.993	57.175	26.2667	194.819	64.9635	0.233028	192.797	70.5488	-30.1741	185.085	74.3729	-50.1725	174.519	45.0262	-49.0217	171.442	47.1775	-74.8318	168.638	50.9513	-97.4864	160.489	32.1259	-51.6289	155.588	39.416	-75.338	148.001	41.2483	-105.74	139.618	19.476	-42.3193	132.762	22.8494	-66.8823	125.603	26.4282	-92.0375	126.684	10.6708	-21.7815	117.701	9.65514	-44.0962	112.802	12.066	-65.7846	156.448	4.67679	4.48207	163.875	-1.38185	35.7451	188.504	25.9305	15.658	
383	3.19167	186.128	55.3146	31.9211	192.679	65.2666	1.51197	189.219	70.5013	-28.4744	186.551	77.5417	-48.8899	176.907	43.7904	-47.7277	170.732	44.0653	-74.0375	166.685	45.0373	-99.5911	160.595	30.4134	-54.0831	157.277	37.0388	-77.2855	149.537	39.7708	-109.579	142.897	16.7488	-42.8687	135.718	20.4094	-68.1932	130.093	23.9743	-88.2641	128.304	6.48465	-27.2569	119.78	5.55324	-46.425	117.625	8.01607	-68.1687	162.601	5.12013	5.21908	165.987	-2.06415	35.9465	187.304	23.2076	18.717	
384	3.2	183.265	57.7048	31.3433	190.351	69.6088	0.427926	184.932	73.6703	-24.0121	180.879	76.8485	-48.306	177.492	43.9823	-46.4544	174.31	47.0909	-70.832	168.824	45.4602	-96.3803	164.009	30.1488	-54.444	158.408	35.5028	-80.735	154.528	38.1259	-108.286	148.357	15.9167	-40.5341	141.54	15.672	-63.3166	135.047	21.154	-90.923	134.951	1.12779	-27.1725	128.33	3.64187	-47.8056	122.088	-0.0265749	-70.4119	165.176	1.75683	3.46604	170.799	-0.681457	35.8368	189.697	26.3633	16.8246	
385	3.20833	177.996	60.9807	29.0553	181.385	72.0997	4.28225	179.139	76.8787	-26.9887	172.1	79.0406	-47.9597	174.078	43.4807	-44.5175	171.495	44.6498	-73.873	170.566	46.9099	-98.1228	165.011	25.1588	-53.9414	159.144	28.8763	-81.713	156.717	36.4389	-108.277	153.528	13.4226	-42.796	147.227	12.5512	-64.8313	138.477	11.4369	-90.7862	142.246	-4.37758	-28.0572	136.904	-2.6375	-47.9628	133.628	-3.47255	-69.2106	173.088	2.25602	7.2769	174.998	-0.309409	32.2169	190.416	32.5565	18.2867	
386	3.21667	170.082	62.4276	29.9822	172.683	77.4119	2.11735	168.429	76.5115	-26.838	163.083	78.0687	-49.6683	174.492	48.5077	-45.8806	172.026	50.9928	-72.8924	170.563	50.9738	-95.5107	168.686	25.8375	-55.6851	164.705	33.4945	-76.9848	159.596	36.3953	-111.659	159.511	10.2092	-46.0339	155.112	12.9147	-68.0305	147.431	10.609	-92.5452	152.704	-3.18564	-25.6038	147.392	-8.78272	-49.7689	144.683	-7.76383	-71.8068	177.175	9.33073	6.53948	182.648	5.64675	33.6477	186.661	38.5978	21.6775	
